<?xml version="1.0" standalone="no"?>
<!DOCTYPE svg PUBLIC "-//W3C//DTD SVG 20010904//EN"
 "http://www.w3.org/TR/2001/REC-SVG-20010904/DTD/svg10.dtd">
<svg version="1.0" xmlns="http://www.w3.org/2000/svg"
 width="1200.000000pt" height="1200.000000pt" viewBox="0 0 1200.000000 1200.000000"
 preserveAspectRatio="xMidYMid meet">
<metadata>
Created by potrace 1.11, written by Peter Selinger 2001-2013
</metadata>
<g transform="translate(0.000000,1200.000000) scale(0.100000,-0.100000)"
fill="#000000" stroke="none">
<path d="M5344 7268 c3 -79 6 -186 7 -236 l1 -92 157 -113 c86 -63 169 -122
184 -132 66 -43 4 -22 -183 60 -114 51 -202 96 -205 104 -2 9 -6 27 -9 41 -22
112 -58 266 -64 271 -4 3 -36 13 -70 22 l-64 15 7 -25 c3 -14 14 -44 24 -67
11 -22 47 -107 82 -189 l63 -147 40 -11 c23 -5 52 -14 66 -19 14 -4 95 -27
180 -50 85 -24 157 -44 160 -47 2 -2 -32 -2 -75 1 -44 3 -145 8 -225 12 -80 4
-151 7 -158 8 -8 2 -53 65 -100 142 l-87 139 -50 -3 c-73 -4 -86 -7 -84 -18 0
-5 42 -54 92 -108 51 -54 100 -108 110 -120 60 -68 103 -111 112 -110 38 2
185 16 205 19 25 4 81 10 194 21 66 6 79 11 71 25 -4 5 -2 9 4 9 6 0 9 81 8
228 l-2 228 -155 112 c-85 61 -174 125 -198 143 l-43 32 5 -145z"/>
<path d="M4928 6657 c-53 -29 -71 -47 -49 -47 5 0 92 -40 192 -88 254 -121
227 -113 274 -87 47 26 219 118 288 153 26 14 46 27 44 28 -3 3 -367 -96 -408
-110 -8 -3 -68 35 -142 89 -70 52 -131 95 -135 94 -4 0 -33 -15 -64 -32z"/>
<path d="M2548 6495 c-2 -2 -16 -6 -32 -9 -48 -9 -152 -62 -194 -101 -91 -81
-142 -201 -142 -329 0 -205 100 -355 285 -426 50 -20 79 -24 180 -24 103 -1
128 2 178 22 118 48 206 144 238 259 10 35 17 64 16 64 -1 1 -16 2 -33 4 -30
2 -32 0 -43 -51 -21 -90 -91 -172 -191 -222 -50 -24 -65 -27 -165 -27 -104 0
-114 2 -176 32 -178 88 -259 271 -208 471 30 120 94 198 207 254 54 27 77 32
161 36 133 6 208 -18 289 -92 34 -32 72 -94 72 -119 0 -16 56 -21 65 -7 8 13
-39 110 -69 142 -83 89 -182 126 -331 126 -57 1 -105 -1 -107 -3z"/>
<path d="M3869 6444 c0 -19 -1 -211 -1 -426 l-1 -393 32 -3 31 -3 0 210 0 211
33 1 c17 0 131 1 252 2 219 2 220 2 223 24 l3 23 -253 -2 -253 -1 -3 172 c-2
158 -1 171 15 171 10 1 137 2 282 3 262 2 264 2 266 23 1 22 1 22 -312 22
l-313 0 -1 -34z"/>
<path d="M4570 6050 l0 -430 25 0 c14 0 25 3 26 8 0 10 1 790 0 825 -1 22 -6
27 -26 27 l-25 0 0 -430z"/>
<path d="M4770 6417 c0 -55 2 -63 20 -64 25 -2 30 6 31 59 2 65 1 68 -26 68
-24 0 -25 -2 -25 -63z"/>
<path d="M5587 6472 c-2 -4 -3 -196 -3 -427 l1 -420 88 -3 87 -3 0 430 0 429
-85 0 c-47 0 -86 -3 -88 -6z"/>
<path d="M3392 6248 c-105 -15 -195 -87 -233 -186 -32 -84 -31 -210 4 -285 54
-118 147 -171 297 -170 138 1 225 47 274 145 32 65 33 78 1 78 -19 0 -28 -9
-43 -42 -24 -54 -89 -113 -139 -127 -50 -14 -146 -14 -194 1 -50 14 -114 69
-139 118 -10 20 -22 60 -26 89 -6 46 -5 51 12 52 11 0 142 0 293 0 l274 1 -6
65 c-18 184 -170 290 -375 261z m181 -63 c74 -35 124 -104 134 -186 l5 -36
-255 1 c-141 0 -258 4 -261 7 -14 13 27 113 62 151 56 62 121 89 207 85 40 -2
86 -11 108 -22z"/>
<path d="M6195 6244 c-22 -8 -57 -28 -77 -44 -20 -17 -39 -30 -41 -30 -3 0 -3
14 -2 30 1 17 -2 33 -8 37 -15 9 -116 10 -130 1 -9 -5 -12 -91 -12 -313 l0
-305 77 0 c43 0 78 3 79 8 0 4 2 97 3 207 2 169 5 205 19 233 33 62 117 94
188 73 70 -21 74 -35 75 -291 l1 -225 82 -3 81 -3 0 207 c0 188 2 212 20 249
24 49 55 67 125 71 59 4 110 -21 125 -62 6 -14 10 -124 10 -245 l0 -219 80 0
80 0 1 53 c0 28 1 141 0 250 0 187 -1 200 -23 240 -36 64 -99 92 -208 92 -96
0 -135 -12 -196 -61 l-42 -34 -17 26 c-38 59 -197 90 -290 58z"/>
<path d="M7325 6253 c-52 -10 -122 -37 -152 -60 -37 -28 -73 -89 -73 -123 0
-18 6 -20 80 -20 l79 0 16 33 c21 45 72 65 155 62 75 -2 112 -17 131 -51 26
-49 -15 -89 -101 -100 -19 -2 -72 -8 -118 -14 -107 -12 -151 -25 -192 -52 -50
-34 -70 -68 -74 -123 -7 -84 28 -140 110 -177 90 -39 268 -28 350 23 l33 20
16 -25 c22 -34 75 -49 142 -42 30 3 59 8 64 12 5 3 9 25 9 50 0 42 -1 44 -30
44 -19 0 -33 7 -40 19 -6 12 -10 95 -10 201 0 145 -3 189 -16 215 -33 70 -142
114 -281 112 -43 0 -87 -2 -98 -4z m233 -404 c-7 -90 -54 -130 -162 -134 -98
-4 -156 25 -156 76 0 43 10 58 49 78 34 18 60 23 174 37 27 3 58 9 70 13 28
11 30 3 25 -70z"/>
<path d="M8055 6246 c-93 -29 -162 -86 -198 -164 -31 -66 -30 -225 0 -293 27
-59 83 -116 142 -143 69 -31 218 -30 281 2 24 13 55 36 67 50 l23 27 0 -62 c0
-133 -51 -183 -188 -184 -82 -1 -136 20 -157 61 -13 26 -17 27 -89 25 -42 -1
-79 -4 -82 -8 -13 -13 38 -96 76 -122 96 -67 307 -84 435 -35 74 28 135 88
154 150 16 56 19 679 3 689 -6 3 -41 6 -79 5 l-68 0 -5 -38 -5 -38 -20 22
c-52 58 -194 85 -290 56z m236 -130 c53 -35 74 -86 74 -176 0 -61 -5 -83 -25
-119 -69 -122 -255 -121 -318 2 -32 62 -38 121 -19 188 18 60 65 114 113 129
46 15 134 2 175 -24z"/>
<path d="M8858 6241 c-91 -29 -158 -86 -198 -167 -27 -54 -31 -76 -31 -154 -1
-199 149 -327 371 -316 111 5 208 45 258 106 16 20 52 87 52 98 0 4 -34 8 -76
7 -72 -1 -77 -2 -90 -27 -48 -92 -243 -100 -312 -13 -29 36 -50 104 -35 113 6
4 126 7 267 7 223 -1 256 1 257 15 4 50 3 69 -8 109 -42 146 -155 230 -316
236 -59 3 -98 -1 -139 -14z m225 -127 c34 -22 76 -88 77 -119 0 -11 -354 -14
-365 -3 -12 12 15 74 44 102 63 60 170 69 244 20z"/>
<path d="M9560 6245 c-125 -33 -179 -95 -168 -193 7 -64 87 -129 178 -146 19
-3 46 -8 60 -11 14 -3 50 -10 80 -16 82 -15 137 -44 143 -76 10 -53 -27 -80
-121 -89 -96 -9 -192 34 -192 87 0 17 -9 19 -84 19 l-84 0 5 -32 c11 -74 70
-135 158 -165 77 -27 261 -23 338 6 112 44 167 134 137 225 -24 75 -89 108
-282 146 -104 20 -163 43 -172 66 -8 21 10 60 31 69 10 4 47 8 83 10 72 3 125
-15 144 -50 6 -11 12 -22 14 -24 2 -5 164 -3 167 1 1 2 -2 17 -7 35 -12 46
-81 109 -142 130 -61 21 -220 25 -286 8z"/>
<path d="M4770 5930 l0 -310 25 0 c20 0 25 5 26 28 1 34 1 539 0 570 -1 17 -7
22 -26 22 l-25 0 0 -310z"/>
<path d="M4931 6201 c18 -20 64 -72 104 -116 124 -137 127 -142 112 -157 -7
-7 -70 -79 -140 -160 l-128 -148 38 0 c34 0 43 6 90 63 29 34 67 78 84 97 17
19 47 54 66 78 20 23 38 42 42 42 3 0 60 -63 125 -140 117 -137 120 -140 160
-140 l40 0 -25 28 c-14 15 -63 70 -108 122 -46 52 -99 112 -118 134 -34 37
-34 39 -16 60 29 34 165 188 200 226 18 19 33 38 33 42 0 4 -15 6 -32 6 -35
-1 -39 -5 -138 -119 -30 -34 -69 -79 -87 -98 l-32 -36 -38 41 c-35 38 -66 74
-153 176 -27 31 -37 37 -71 36 l-39 0 31 -37z"/>
<path d="M4110 5522 c-28 -23 -30 -77 -3 -98 11 -8 39 -13 71 -12 53 1 53 1
50 32 -3 27 -7 31 -35 32 -18 1 -33 -3 -33 -9 0 -5 6 -7 13 -4 8 3 20 1 27 -3
25 -15 -7 -41 -44 -34 -35 6 -43 12 -46 34 -5 34 1 49 23 56 34 12 41 11 60
-4 9 -9 20 -12 25 -8 11 12 -29 36 -59 36 -15 0 -37 -8 -49 -18z"/>
<path d="M4559 5521 c-1 -12 -1 -37 -1 -56 0 -50 1 -55 11 -55 5 0 8 12 6 28
-4 32 10 52 36 52 15 0 19 -8 19 -40 0 -22 5 -40 11 -40 6 0 9 17 7 43 -3 41
-4 42 -39 42 -30 0 -36 3 -34 17 2 10 0 20 -6 23 -5 4 -9 -3 -10 -14z"/>
<path d="M4676 5527 c3 -10 9 -15 12 -12 3 3 0 11 -7 18 -10 9 -11 8 -5 -6z"/>
<path d="M4896 5532 c-3 -3 -6 -32 -6 -64 l0 -58 38 0 c46 0 86 19 90 44 6 29
-6 63 -25 71 -24 10 -90 15 -97 7z m85 -22 c22 -12 25 -52 5 -69 -8 -7 -27
-13 -42 -14 -28 -2 -29 0 -32 46 -3 45 -2 47 23 47 15 0 35 -5 46 -10z"/>
<path d="M5750 5528 c0 -25 45 -118 58 -118 12 0 62 97 62 121 0 23 -20 -5
-39 -55 l-18 -48 -26 56 c-26 55 -37 68 -37 44z"/>
<path d="M5880 5530 c0 -5 5 -10 11 -10 5 0 7 5 4 10 -3 6 -8 10 -11 10 -2 0
-4 -4 -4 -10z"/>
<path d="M6009 5529 c-1 -8 -1 -17 0 -21 0 -5 -12 -8 -28 -8 -46 0 -61 -10
-61 -40 0 -37 19 -50 67 -48 l39 1 -1 58 c0 32 -3 61 -8 65 -4 4 -8 1 -8 -7z
m-10 -53 c13 -16 -1 -56 -19 -56 -33 0 -55 42 -33 63 11 12 40 8 52 -7z"/>
<path d="M6515 5526 c-28 -20 -12 -44 40 -57 45 -11 59 -32 29 -43 -19 -7 -56
2 -65 17 -4 5 -12 8 -18 6 -22 -8 8 -31 47 -36 46 -6 72 8 72 37 0 16 -32 31
-72 34 -12 1 -32 25 -26 32 13 12 44 11 61 -4 21 -19 35 -9 17 13 -15 19 -60
20 -85 1z"/>
<path d="M7108 5516 c-5 -36 3 -106 13 -106 5 0 9 11 9 25 0 22 4 25 34 25 44
0 70 24 56 51 -6 10 -14 19 -18 20 -4 0 -26 2 -49 4 -36 2 -42 0 -45 -19z m92
-16 c0 -11 -3 -20 -7 -21 -56 -7 -63 -6 -63 18 0 20 5 23 35 23 28 0 35 -4 35
-20z"/>
<path d="M7241 5475 c-1 -39 2 -65 9 -65 5 0 10 15 10 34 0 26 5 36 21 41 26
8 34 1 35 -33 3 -40 3 -42 13 -42 13 0 7 66 -8 84 -9 11 -19 13 -37 6 -20 -8
-24 -6 -24 10 0 10 -4 21 -9 24 -4 3 -9 -24 -10 -59z"/>
<path d="M6650 5516 c0 -8 -6 -17 -12 -20 -10 -5 -10 -7 0 -12 6 -3 12 -21 12
-40 0 -28 4 -34 21 -34 18 0 19 2 5 15 -17 17 -13 54 6 67 9 5 8 8 -5 8 -10 0
-16 4 -12 9 3 5 1 12 -5 16 -5 3 -10 0 -10 -9z"/>
<path d="M6940 5470 c0 -33 4 -60 10 -60 6 0 10 8 10 18 0 31 11 32 35 4 13
-15 26 -24 30 -20 4 4 -3 17 -15 30 l-21 23 22 17 c12 10 15 18 8 18 -7 0 -21
-7 -31 -17 -22 -19 -30 -13 -30 22 0 14 -4 25 -9 25 -5 0 -9 -27 -9 -60z"/>
<path d="M7490 5516 c0 -8 -6 -17 -12 -20 -10 -5 -10 -7 0 -12 6 -3 12 -21 12
-40 0 -28 4 -34 21 -34 18 0 19 2 5 15 -17 17 -13 54 6 67 10 6 8 8 -4 8 -11
0 -15 5 -12 15 4 8 1 15 -5 15 -6 0 -11 -6 -11 -14z"/>
<path d="M4343 5499 c-13 -5 -23 -13 -23 -19 0 -13 6 -13 30 2 15 9 22 10 31
1 9 -9 1 -14 -30 -23 -31 -8 -41 -16 -39 -28 2 -13 15 -17 55 -19 38 -1 50 2
47 11 -3 7 -6 26 -7 41 -3 32 -30 47 -64 34z m36 -70 c-17 -11 -40 -8 -40 6 0
13 45 24 50 12 2 -5 -3 -13 -10 -18z"/>
<path d="M4475 5500 c-11 -4 -26 -5 -32 -3 -16 6 -18 -112 -3 -122 6 -3 10 4
10 17 0 21 4 24 33 20 21 -2 38 2 46 12 29 35 -12 92 -54 76z m39 -26 c10 -26
7 -42 -10 -48 -25 -10 -54 3 -54 23 0 36 52 57 64 25z"/>
<path d="M4742 5499 c-12 -5 -22 -12 -23 -16 0 -4 -2 -17 -4 -28 -6 -28 13
-45 51 -45 32 0 53 15 39 28 -4 4 -10 1 -12 -5 -7 -20 -41 -15 -53 6 -5 11 -7
27 -4 35 7 17 54 22 54 6 0 -5 7 -10 16 -10 13 0 14 3 5 14 -16 19 -42 25 -69
15z"/>
<path d="M5160 5500 c-20 -12 -7 -45 20 -48 14 -2 29 -8 34 -13 15 -14 -24
-24 -45 -11 -10 6 -21 8 -23 3 -7 -11 18 -21 54 -21 55 0 49 44 -7 55 -26 5
-33 9 -25 17 8 8 19 8 38 0 20 -10 25 -10 22 0 -5 15 -52 28 -68 18z"/>
<path d="M5460 5500 c-7 -5 -19 -6 -26 -3 -10 4 -13 -7 -12 -41 1 -49 18 -66
18 -18 0 36 13 55 36 50 12 -2 19 -12 20 -28 2 -42 4 -50 12 -50 7 0 8 27 3
76 -1 15 -35 24 -51 14z"/>
<path d="M5560 5500 c-42 -10 -30 -38 23 -54 9 -3 17 -10 17 -16 0 -13 -37
-13 -45 0 -10 16 -25 12 -19 -5 4 -10 20 -15 46 -15 35 0 39 2 36 23 -2 14
-11 23 -25 25 -28 4 -53 32 -29 32 10 0 26 -5 37 -10 12 -7 19 -7 19 -1 0 17
-33 28 -60 21z"/>
<path d="M6064 5484 c-24 -23 -25 -27 -11 -47 18 -27 68 -34 87 -13 15 19 7
21 -19 4 -20 -12 -51 -5 -51 12 0 5 18 10 40 10 56 0 54 33 -3 53 -12 5 -27
-2 -43 -19z m63 -10 c2 -6 -10 -10 -27 -10 -30 0 -37 6 -23 20 10 10 46 3 50
-10z"/>
<path d="M6721 5494 c-12 -9 -21 -26 -21 -39 0 -53 82 -67 101 -17 13 34 6 47
-29 60 -23 8 -35 7 -51 -4z m57 -17 c18 -21 3 -57 -24 -57 -17 0 -25 7 -30 26
-10 38 30 60 54 31z"/>
<path d="M6847 5494 c-47 -25 -31 -84 23 -84 29 0 58 16 47 26 -3 4 -13 1 -21
-5 -22 -19 -56 -4 -56 24 0 27 35 44 53 26 13 -13 27 -14 27 -3 0 5 -10 13
-23 19 -17 8 -30 7 -50 -3z"/>
<path d="M4250 5453 c0 -53 18 -58 22 -5 2 20 8 37 15 37 6 0 14 3 18 7 4 4
-7 6 -24 6 -30 -1 -31 -3 -31 -45z"/>
<path d="M4677 5493 c-7 -11 -1 -72 7 -80 3 -4 6 15 6 40 0 45 -4 56 -13 40z"/>
<path d="M5046 5484 c-22 -21 -20 -50 5 -67 23 -17 70 -9 77 12 3 10 0 11 -17
1 -12 -6 -31 -8 -41 -5 -35 11 -21 25 25 25 49 0 55 8 27 33 -23 21 -56 22
-76 1z m62 -12 c2 -8 -4 -11 -20 -8 -12 3 -27 5 -33 5 -5 1 -3 6 5 11 19 13
42 9 48 -8z"/>
<path d="M5255 5463 c1 -21 5 -40 10 -43 6 -3 10 13 9 34 0 22 -5 41 -10 43
-6 2 -10 -13 -9 -34z"/>
<path d="M5299 5479 c-8 -16 -8 -28 0 -46 10 -21 17 -24 46 -21 39 4 46 -6 14
-22 -15 -9 -24 -8 -35 1 -8 6 -17 9 -21 5 -9 -9 0 -15 34 -22 41 -8 59 13 62
73 l1 50 -44 1 c-37 2 -47 -2 -57 -19z m65 5 c20 -8 21 -38 1 -54 -17 -14 -43
-7 -51 15 -6 15 11 45 26 45 5 0 15 -3 24 -6z"/>
<path d="M5880 5455 c0 -25 5 -45 10 -45 6 0 10 20 10 45 0 25 -4 45 -10 45
-5 0 -10 -20 -10 -45z"/>
<path d="M6172 5488 c-7 -7 -12 -21 -12 -33 0 -28 19 -45 50 -45 35 0 52 13
55 44 2 17 -3 30 -15 36 -25 14 -63 13 -78 -2z m72 -20 c8 -14 7 -21 -6 -34
-22 -22 -58 -10 -58 21 0 37 43 46 64 13z"/>
<path d="M6287 5493 c-15 -14 -6 -32 22 -41 16 -6 33 -7 37 -4 3 4 5 0 2 -8
-6 -20 -38 -26 -49 -9 -4 7 -11 10 -14 7 -14 -14 7 -28 41 -28 56 0 60 45 4
53 -13 2 -26 9 -28 15 -5 15 34 16 43 2 10 -16 25 -12 19 5 -6 15 -64 21 -77
8z"/>
<path d="M7364 5488 c-25 -39 -2 -78 45 -78 72 0 71 82 -1 88 -22 2 -39 -2
-44 -10z m74 -30 c2 -19 -2 -28 -18 -33 -37 -12 -64 27 -38 53 21 21 53 10 56
-20z"/>
<path d="M7552 5488 c-7 -7 -12 -21 -12 -33 0 -29 19 -45 51 -45 29 0 59 23
59 45 0 37 -70 61 -98 33z m67 -12 c13 -16 -1 -56 -19 -56 -23 0 -40 14 -40
35 0 34 38 47 59 21z"/>
<path d="M7671 5491 c-19 -12 1 -38 31 -43 31 -4 35 -28 5 -28 -14 0 -27 6
-30 13 -2 6 -7 10 -10 7 -12 -11 12 -32 37 -32 62 0 66 44 5 57 -16 4 -27 11
-23 16 8 13 42 11 47 -3 2 -7 8 -10 12 -6 23 22 -43 39 -74 19z"/>
<path d="M5645 5420 c3 -5 10 -10 16 -10 5 0 9 5 9 10 0 6 -7 10 -16 10 -8 0
-12 -4 -9 -10z"/>
<path d="M6390 5420 c0 -5 7 -10 15 -10 8 0 15 5 15 10 0 6 -7 10 -15 10 -8 0
-15 -4 -15 -10z"/>
</g>
</svg>
